<svg version="1.1" xmlns="http://www.w3.org/2000/svg" style="display: block;" viewBox="0 0 2048 2048" width="1024" height="1024" preserveAspectRatio="none">
<path transform="translate(0,0)" fill="rgb(0,0,0)" d="M 1411.53 160.406 C 1431.38 157.438 1470.43 163.917 1489.3 169.951 C 1597.11 204.422 1653.53 305.194 1669.72 411.669 C 1676.47 449.947 1674.57 490.075 1694.2 524.987 C 1731.97 592.137 1784.19 551.344 1833.53 536.142 C 1945.01 501.786 2012.66 655.445 1993.64 743.784 C 1990.3 759.299 1971.54 765.864 1957.89 759.542 C 1937.76 750.683 1918.32 738.914 1897.93 730.658 C 1876.87 722.131 1875.64 738.131 1872.17 754.513 C 1858.16 820.727 1829.78 846.831 1761.02 820.948 C 1782.69 901.877 1852.98 982.287 1925.94 1022.41 C 1948.11 1034.61 2007.01 1053.08 2000.13 1085.42 C 1985.86 1152.59 1869.65 1143.35 1818.97 1137.55 C 1833.23 1167.89 1851.83 1211.58 1811.51 1233.93 C 1783.37 1249.53 1745.83 1243.7 1716.23 1234.92 C 1686.02 1226.53 1660.47 1212.22 1635.45 1193.8 C 1626.61 1187.29 1609.71 1174.6 1600.15 1170.21 C 1597.98 1200.08 1595.66 1229.34 1566.44 1245.62 C 1545.47 1257.23 1510.29 1256.37 1488.06 1248.78 C 1377.8 1211.12 1292.19 1090.95 1242.29 993.705 C 1231.63 972.835 1221.53 951.679 1212.02 930.26 C 1205.38 915.106 1200.26 899.942 1192.2 885.448 C 1181.02 894.149 1168.63 901.775 1154.03 902.27 C 1122.23 903.347 1105.49 871.597 1089.75 848.969 C 1086.08 843.68 1082.35 837.54 1077.47 833.254 C 1076.72 832.593 1074.13 830.282 1073.14 830.11 C 1066.82 829.007 1044.74 862.647 1020.77 864.098 C 1009.66 864.77 999.552 861.753 991.2 854.309 C 969.434 834.909 962.044 799.77 960.372 772.044 C 957.736 728.331 968.52 679.181 998.459 645.843 C 1030.21 610.487 1071.5 603.76 1114.97 620.913 C 1131.98 627.627 1152.28 639.392 1171.12 637.983 C 1178.56 637.484 1185.44 633.858 1190.06 628.003 C 1204.64 609.369 1195.85 569.518 1192.48 547.905 C 1189.96 532.725 1187.82 517.485 1186.05 502.199 C 1176.62 413.87 1184.37 321.17 1243.08 250.046 C 1289.22 194.149 1340.54 167.832 1411.53 160.406 z M 1018.68 804.999 C 1048.61 777.369 1078.56 755.52 1114.17 795.809 C 1129.17 812.785 1137.57 833.725 1154.67 849.658 C 1172 840.588 1184.7 824.32 1206.87 830.658 C 1219.65 834.311 1228.75 845.293 1233.94 856.932 C 1285.15 971.551 1346.86 1091.4 1448.25 1169.67 C 1471.49 1187.61 1512.34 1211.46 1542.8 1199.02 C 1558.71 1172.44 1534.04 1129.74 1574.84 1119.15 C 1618.61 1107.79 1658.03 1152.79 1694.48 1171.49 C 1714.54 1181.32 1755.68 1199.15 1778.01 1190.98 C 1780.38 1190.12 1782.34 1188.92 1783.29 1186.49 C 1789.51 1170.45 1740 1112.92 1783.45 1091.98 C 1801.88 1083.09 1855.66 1092.1 1878.83 1092.03 C 1898.1 1091.98 1916.12 1089.7 1934.63 1084.5 C 1913.07 1073.05 1890.88 1063.27 1870.71 1049.22 C 1799.85 999.851 1743.2 927.142 1716.45 844.726 C 1700.97 797.04 1709.12 746.193 1771.4 773 C 1784.24 778.523 1803.48 789.765 1813.02 772.691 C 1829.82 741.211 1822.53 689.92 1865.8 677.983 C 1892.07 671.012 1923.37 685.64 1946.69 697.962 C 1940.35 658.608 1929.41 621.959 1896.61 596.651 C 1864.88 572.16 1831.73 593.109 1800.98 604.947 C 1766.38 618.077 1722.42 617.496 1691.63 596.427 C 1655.7 571.851 1631.92 520.205 1627.49 478.187 C 1618.34 391.504 1598.09 300.977 1522.67 246.537 C 1495.89 227.205 1449.04 211.764 1414.24 216.404 C 1253.84 235.573 1214.62 393.358 1239.96 528.213 C 1247.79 569.832 1260.31 625.415 1232 661.952 C 1219.55 678.211 1201.18 688.89 1180.89 691.663 C 1125.8 698.637 1076.03 633.831 1033.53 684.801 C 1008.85 714.395 1002.64 769.577 1018.68 804.999 z"/>
<path transform="translate(0,0)" fill="rgb(0,0,0)" d="M 1400.95 493.369 C 1411.72 491.064 1427.03 495.646 1436.43 501.357 C 1464.26 518.265 1483.2 545.083 1491.19 577.123 C 1498.36 605.902 1503.45 662.654 1489.56 690.631 C 1487.03 695.72 1481.02 699.983 1475.43 701.308 C 1464.25 703.96 1453.55 695.319 1444.48 689.388 C 1415.16 667.601 1404.65 707.87 1381.16 689.405 C 1333.47 651.911 1322.46 503.663 1400.95 493.369 z"/>
<path transform="translate(0,0)" fill="rgb(0,0,0)" d="M 1453.04 318.205 C 1462.82 317.679 1470.86 317.132 1480.36 320.817 C 1500.2 328.516 1515.7 348.427 1524.4 367.224 C 1533.55 386.993 1537.99 417.205 1530.25 438.076 C 1526.16 449.11 1518.92 455.177 1508.46 459.628 C 1461.52 467.929 1429.5 411.361 1428 371.576 C 1427.08 346.935 1427.83 328.871 1453.04 318.205 z"/>
<path transform="translate(0,0)" fill="rgb(0,0,0)" d="M 1329.26 332.2 C 1346.89 331.264 1362.26 339.998 1366.03 357.929 C 1374.38 397.525 1361.08 468.409 1315.88 480.53 C 1297.55 482.742 1282.49 475.818 1278.22 456.61 C 1269.34 416.629 1284.18 344.932 1329.26 332.2 z"/>
<path transform="translate(0,0)" fill="rgb(0,0,0)" d="M 659.786 810.372 C 695.433 807.501 760.647 819.011 797.941 826.514 C 832.878 835.335 884.402 840.956 913.84 861.204 C 931.182 873.133 955.673 918.743 966.549 937.542 L 1008.98 1010.66 L 1035.06 1055.09 C 1040.87 1064.98 1047.97 1075.84 1051.99 1086.5 C 1062.37 1114.03 1056.86 1144.05 1030.41 1160.11 C 1014.51 1169.64 995.48 1172.47 977.492 1167.99 C 964.34 1164.55 952.435 1157.44 943.157 1147.51 C 929.237 1132.46 917.901 1106.9 907.409 1088.49 C 885.417 1049.9 865.24 1008.79 842.591 970.704 C 808.651 962.127 776.424 958.669 743.306 951.669 C 766.291 1070.88 808.284 1200.59 851.887 1312.94 C 862.429 1340.11 873.368 1367.12 884.703 1393.97 C 892.354 1412.08 901.535 1432.26 908.19 1450.39 C 919.217 1446.35 932.51 1442.57 943.996 1438.7 L 1042.12 1405.87 C 1072.57 1395.68 1103.41 1384.45 1134.07 1374.64 C 1223.76 1345.93 1277.49 1473.24 1192.7 1516.12 C 1174.84 1525.14 1154.06 1531.03 1134.87 1537.28 L 1047.98 1565.04 L 962.071 1592.06 C 917.061 1606.2 867.807 1627 824.399 1597.93 C 797.552 1579.96 783.293 1542.59 770.962 1514.03 C 759.018 1486.96 747.86 1459.56 737.502 1431.85 C 733.255 1420.59 723.67 1396.07 721.432 1385.67 C 700.793 1395.23 674.915 1404.93 653.397 1413.72 C 608.618 1432.07 563.739 1450.17 518.763 1468.03 C 494.144 1478.8 467.828 1488.18 443.073 1499.01 C 431.081 1517.22 414.383 1549.89 403.282 1570.07 C 376.091 1619.57 349.162 1669.21 322.495 1718.99 C 317.611 1728.06 312.767 1737.2 307.816 1746.23 C 289.919 1778.89 273.415 1818.25 234.781 1830.74 C 216.912 1836.6 197.452 1835.18 180.627 1826.78 C 165.086 1818.83 150.093 1803.25 144.726 1786.41 C 133.91 1752.47 153.402 1720.25 168.1 1690.45 C 181.527 1663.23 195.273 1636.18 209.334 1609.29 C 230.666 1568.14 311.32 1409.01 338.275 1384.94 C 369.651 1356.93 434.748 1334.5 474.853 1318.8 C 501.617 1308.33 528.619 1297.4 556.025 1288.71 C 548.685 1268.81 539.185 1230.07 533.785 1208.8 C 518.084 1147.77 504.658 1086.18 493.537 1024.15 C 485.739 1028.26 472.538 1040.02 465.255 1046.15 L 416.161 1087.43 C 389.22 1110.02 363.709 1134.24 325.923 1130.03 C 292.194 1126.27 268.878 1102.53 244.171 1081.59 C 203.892 1046.5 161.135 1007.27 126.219 967.014 C 88.4901 923.516 132.051 854.758 187.186 864.213 C 225.099 870.714 240.192 903.843 265.049 927.833 C 286.631 948.664 308.955 970.279 333.183 987.154 C 340.914 980.241 352.667 971.409 360.99 964.729 C 380.38 949.036 399.933 933.545 419.646 918.26 C 438.091 903.862 469.429 877.082 489.047 867.427 C 514.443 856.063 542.765 853.317 568.398 842.673 C 581.238 837.342 593.642 829.966 606.161 823.796 C 623.732 815.136 640.744 812.769 659.786 810.372 z"/>
<path transform="translate(0,0)" fill="rgb(0,0,0)" d="M 501.42 497.404 C 591.808 489.232 671.795 555.673 680.343 646.026 C 688.891 736.38 622.784 816.643 532.467 825.567 C 441.616 834.545 360.775 767.962 352.176 677.074 C 343.578 586.186 410.497 505.624 501.42 497.404 z"/>
<path transform="translate(0,0)" fill="rgb(0,0,0)" d="M 1392.78 1621.45 C 1417.44 1616.45 1428.45 1652.33 1408.73 1662.05 C 1383.7 1674.39 1348.22 1680.9 1320.49 1687.43 C 1254.41 1703 1187.99 1717.05 1121.28 1729.58 C 1058.84 1741.39 994.337 1752.03 931.019 1757.71 C 911.977 1759.42 877.388 1761.85 858.285 1758.91 C 850.149 1757.35 830.557 1752.61 830.181 1743.1 C 829.608 1728.61 870.37 1725.64 880.321 1723.92 C 901.691 1720.22 923.032 1716.35 944.342 1712.32 C 1036.35 1696.01 1128.04 1677.95 1219.37 1658.15 L 1328.35 1634 C 1346.75 1629.97 1374.78 1623.14 1392.78 1621.45 z"/>
<path transform="translate(0,0)" fill="rgb(0,0,0)" d="M 933.235 1812.29 C 966.287 1810.86 999.338 1812.93 1032.35 1813.7 C 1059.73 1813.91 1087.08 1814.27 1114.47 1814.61 C 1152.92 1815.09 1191.68 1813.41 1230.14 1813.95 C 1242.9 1814.12 1255.27 1812.93 1267.64 1815.85 C 1274.86 1817.55 1277.51 1822.54 1280.61 1828.13 C 1280.52 1832.21 1280.15 1836.5 1279.87 1840.6 C 1274.19 1849.61 1271.15 1851.45 1260.79 1853.99 C 1241.94 1858.44 1207.14 1859.58 1187.82 1860.64 C 1121.86 1864.25 1056.14 1861.07 990.554 1853.46 C 970.316 1851.11 946.897 1849.06 927.639 1841.84 C 923.715 1840.17 919.636 1836.15 918.386 1832.02 C 914.453 1819.03 923.207 1815.26 933.235 1812.29 z"/>
</svg>